<svg width="78" height="78" viewBox="0 0 78 78" fill="none" xmlns="http://www.w3.org/2000/svg">
<g clip-path="url(#clip0_1_56)">
<path d="M52.0248 25.9758L59.4258 37.1905L52.0248 39.0974C51.0553 42.006 49.4068 44.7533 47.0799 47.0802C44.7851 49.375 42.0705 51.0556 39.097 52.0252L39 51.9281L29.9831 52.2837L25.9754 52.0252C23.0021 51.0556 20.2873 49.375 17.9926 47.0802L6.01133 35.099C-2.00378 27.0839 -2.00378 14.0573 6.01133 6.04219C14.2527 -2.19915 27.2775 -1.77914 35.0986 6.04219L47.0799 17.9929C49.4071 20.3201 51.0554 23.0671 52.0248 25.9758ZM27.0189 14.1222C23.3991 10.5024 17.6141 10.5992 14.0912 14.1222C10.5361 17.6773 10.5361 23.4948 14.0912 27.0499L25.9754 38.9036L32.4716 32.4722L39.0002 26.073L27.0189 14.1222Z" fill="#8890BF"/>
<path d="M47.08 17.9932L35.0988 6.0424C27.2774 -1.77893 14.2528 -2.19894 6.01147 6.0424L14.0912 14.1222C17.6141 10.5993 23.3991 10.5024 27.0189 14.1222L39.0001 26.0729L32.4718 32.4722L47.08 47.0804C49.4069 44.7535 51.0554 42.0063 52.0249 39.0976L59.4259 37.1907L52.0249 25.976C51.0554 23.0671 49.4071 20.3202 47.08 17.9932Z" fill="#181F4D"/>
<path d="M63.2393 11.5292L60.0073 14.7612C59.1141 15.6543 59.1141 17.0999 60.0073 17.9931C60.9005 18.8862 62.3461 18.8863 63.2393 17.9931L66.4712 14.7612C67.3644 13.868 67.3644 12.4224 66.4712 11.5292C65.5779 10.636 64.1325 10.636 63.2393 11.5292Z" fill="#4D4D4D"/>
<path d="M14.7609 60.0081L11.5288 63.2401C10.6356 64.1333 10.6356 65.5788 11.5288 66.4719C12.422 67.3649 13.8676 67.3651 14.7606 66.4719L17.9924 63.2401C18.8856 62.3469 18.8856 60.9013 17.9924 60.0082C17.0992 59.1152 15.6539 59.1151 14.7609 60.0081Z" fill="#4D4D4D"/>
<path d="M67.6957 31.3122C68.0223 32.5321 69.2754 33.2549 70.4952 32.9282L74.9107 31.7447C76.1307 31.4243 76.8502 30.165 76.5268 28.9452C76.2002 27.7252 74.9471 27.0025 73.7273 27.3291L69.3118 28.5127C68.0999 28.837 67.3688 30.0851 67.6957 31.3122Z" fill="#4D4D4D"/>
<path d="M1.47311 49.0562C1.79974 50.2762 3.05277 50.9989 4.27258 50.6723L8.68811 49.4886C9.90336 49.1698 10.6291 47.9104 10.3042 46.6891C9.97755 45.4691 8.72452 44.7464 7.50471 45.073L3.08918 46.2567C1.87728 46.5811 1.14603 47.8291 1.47311 49.0562Z" fill="#4D4D4D"/>
<path d="M46.2558 3.08964L45.0721 7.50517C44.7455 8.72514 45.4682 9.97801 46.6882 10.3046C47.9082 10.6313 49.1595 9.91327 49.4877 8.68857L50.6712 4.27305C50.9978 3.05308 50.2751 1.8002 49.0551 1.47358C47.8283 1.14665 46.5802 1.87774 46.2558 3.08964Z" fill="#4D4D4D"/>
<path d="M28.5122 69.3124L27.3285 73.7279C27.0018 74.9479 27.7246 76.2008 28.9445 76.5274C30.1645 76.8508 31.4189 76.136 31.744 74.9113L32.9277 70.4958C33.2543 69.2758 32.5316 68.023 31.3117 67.6963C30.0847 67.3697 28.8367 68.1008 28.5122 69.3124Z" fill="#4D4D4D"/>
<path d="M71.9887 71.9588C63.9736 79.9739 50.9488 80.0064 42.9014 71.9588L30.9201 60.008C28.5932 57.6811 26.9449 54.9341 25.9752 52.0252C24.5531 47.759 24.5532 43.1698 25.9754 38.9036C26.9449 35.995 28.5932 33.2475 30.9201 30.9206C33.1826 28.6581 35.8974 26.9778 38.9031 25.9758L39 26.0727C42.5552 29.628 42.5551 35.4454 39 39.0004C35.4449 42.5555 35.4449 48.3731 39 51.9282L50.9812 63.8789C52.7266 65.6243 54.9889 66.5291 57.4453 66.5291C57.5098 66.5936 58.0591 66.5614 58.1886 66.4968C59.9338 66.497 62.2283 65.5597 63.909 63.8789C67.4641 60.3238 67.4642 54.5064 63.909 50.9512L52.0249 39.0976C53.4471 34.8314 53.4471 30.242 52.0249 25.9758C54.9658 26.9776 57.7454 28.6583 60.0077 30.9207L71.989 42.8715C80.0041 50.8868 80.0038 63.9437 71.9887 71.9588Z" fill="#FB7076"/>
<path d="M39.0003 26.073L38.9034 25.9761C35.8978 26.9779 33.1827 28.6584 30.9204 30.9209L39.0003 39.0007C42.5554 35.4455 42.5555 29.6281 39.0003 26.073Z" fill="#752226"/>
<path d="M71.9887 42.8713L60.0075 30.9206C57.7452 28.6581 54.9657 26.9775 52.0247 25.9756C53.4468 30.2419 53.4468 34.8312 52.0247 39.0975L63.9087 50.951C67.4639 54.5063 67.4638 60.3237 63.9087 63.8788L71.9885 71.9586C80.0038 63.9437 80.0041 50.8867 71.9887 42.8713Z" fill="#752226"/>
</g>
<defs>
<clipPath id="clip0_1_56">
<rect width="78" height="78" fill="white" transform="matrix(1 0 0 -1 0 78)"/>
</clipPath>
</defs>
</svg>
