<svg width="78" height="78" viewBox="0 0 78 78" fill="none" xmlns="http://www.w3.org/2000/svg">
<path d="M38.9309 61.9394C56.035 61.9394 69.9006 48.0738 69.9006 30.9697C69.9006 13.8656 56.035 0 38.9309 0C21.8268 0 7.96118 13.8656 7.96118 30.9697C7.96118 48.0738 21.8268 61.9394 38.9309 61.9394Z" fill="#752226"/>
<path d="M13.8419 49.0879L3.18604 67.5591L15.623 66.8989L21.2734 78.0001L31.1309 60.9107C24.0679 59.0836 18.003 54.8304 13.8419 49.0879Z" fill="#181F4D"/>
<path d="M64.0813 48.9957C59.951 54.7536 53.886 59.0221 46.8384 60.88L56.7266 78.0001L62.377 66.8989L74.814 67.5591L64.0813 48.9957Z" fill="#181F4D"/>
<path d="M38.9309 53.4177C51.3287 53.4177 61.379 43.3673 61.379 30.9696C61.379 18.5719 51.3287 8.52161 38.9309 8.52161C26.5332 8.52161 16.4829 18.5719 16.4829 30.9696C16.4829 43.3673 26.5332 53.4177 38.9309 53.4177Z" fill="#FB7076"/>
<path d="M54.3159 28.5437C55.0069 27.8681 54.623 26.6858 53.671 26.5476L44.8116 25.2579C44.4277 25.1964 44.1053 24.9661 43.9364 24.613L39.975 16.5827C39.545 15.7075 38.3013 15.7075 37.8714 16.5827L33.9254 24.613C33.7565 24.9508 33.4187 25.1964 33.0502 25.2579L24.1907 26.5476C23.2387 26.6858 22.8549 27.8681 23.5458 28.5437L29.9486 34.7929C30.225 35.0693 30.3478 35.4531 30.2864 35.8216L28.7817 44.635C28.6128 45.587 29.6261 46.324 30.486 45.8634L38.4088 41.7024C38.7466 41.5181 39.1612 41.5181 39.499 41.7024L47.4218 45.8634C48.2817 46.3087 49.2797 45.587 49.1261 44.635L47.6061 35.8216C47.5446 35.4378 47.6675 35.0539 47.9439 34.7929L54.3159 28.5437Z" fill="white"/>
</svg>
