<svg width="78" height="78" viewBox="0 0 78 78" fill="none" xmlns="http://www.w3.org/2000/svg">
<path d="M35.034 9.25427C34.1231 9.25564 33.2228 9.44592 32.3899 9.81216V0H8.59337C4.21211 0 0.661133 3.55098 0.661133 7.93223V31.7288H10.4733C9.00576 28.3867 10.5248 24.4867 13.8683 23.0193C17.2104 21.5518 21.1104 23.0708 22.5778 26.4143C23.3221 28.1077 23.3221 30.0367 22.5778 31.7302H32.3899V21.918C35.732 23.3855 39.632 21.8665 41.0994 18.523C42.5668 15.1795 41.0479 11.2809 37.7044 9.81353C36.8636 9.44196 35.9542 9.2529 35.034 9.25427Z" fill="#888FBF"/>
<path d="M64.1186 7.93223C64.1186 3.55098 60.5676 0 56.1865 0H32.3898V9.81216C35.7319 8.34463 39.6319 9.86365 41.0993 13.2071C42.5668 16.5493 41.0478 20.4493 37.7043 21.9166C36.0109 22.661 34.0819 22.661 32.3884 21.9166V31.7288H42.2006C40.7331 35.0709 42.2521 38.9709 45.5956 40.4383C48.9377 41.9058 52.8377 40.3868 54.3051 37.0433C55.0494 35.3498 55.0494 33.4209 54.3051 31.7274H64.1186V7.93223Z" fill="#888FBF"/>
<path d="M64.1187 8.68713C56.562 19.1999 42.9199 25.1715 32.3899 28.3855V31.729H42.202C40.7345 35.0711 42.2535 38.9711 45.597 40.4385C48.9391 41.906 52.8391 40.387 54.3065 37.0435C55.0509 35.35 55.0509 33.4211 54.3065 31.7276H64.1187V8.68713Z" fill="#181F4D"/>
<path d="M29.7458 42.3051C30.6567 42.3065 31.5571 42.4967 32.3899 42.863V31.7288H22.5778C24.0453 28.3867 22.5263 24.4867 19.1828 23.0193C15.8393 21.5517 11.9407 23.0708 10.4733 26.4143C9.72894 28.1077 9.72894 30.0367 10.4733 31.7301H0.661133V55.5267C0.661133 59.9079 4.21211 63.4589 8.59337 63.4589H32.3899V54.9688C29.0478 56.4363 25.1478 54.9173 23.6804 51.5738C22.2129 48.2317 23.7319 44.3317 27.0754 42.8643C27.9162 42.4928 28.8257 42.3037 29.7458 42.3051Z" fill="#888FBF"/>
<path d="M0.661041 55.5255C0.661041 59.9067 4.21202 63.4577 8.59328 63.4577H32.3898V54.9676C29.0636 56.4324 25.1794 54.924 23.7146 51.5977C23.3749 50.8257 23.1858 49.9942 23.1593 49.1506C16.0718 52.3116 8.41991 54.0131 0.660889 54.1545V55.5255H0.661041Z" fill="#181F4D"/>
<path d="M67.5756 59.3594L59.211 37.017L50.0243 40.4767C52.585 43.0851 52.5454 47.2759 49.937 49.8353C47.3285 52.3948 43.1377 52.3565 40.5783 49.748C39.2749 48.4194 38.5899 46.6043 38.6931 44.7455L29.5075 48.2052L33.4208 58.6612C32.5125 58.6097 31.603 58.7485 30.7503 59.0684C27.3368 60.393 25.6447 64.2336 26.9693 67.647C28.2716 71.001 32.0116 72.7052 35.3973 71.4835C36.2499 71.1622 37.0274 70.6651 37.6777 70.0267L40.6605 78L62.9394 69.6091C67.0455 68.0544 69.1198 63.4695 67.5756 59.3594Z" fill="#FB7076"/>
<path d="M63.262 47.8378C54.14 61.4812 37.0395 66.2458 27.0237 67.8864C28.4291 71.2298 32.2788 72.8004 35.6221 71.395C36.3876 71.0737 37.0857 70.6084 37.6778 70.0266L40.6606 78L62.9395 69.6091C67.0444 68.0544 69.1173 63.4722 67.5759 59.3633L63.262 47.8378Z" fill="#752226"/>
<path d="M35.034 9.25423C34.1231 9.2556 33.2228 9.44588 32.3899 9.81211V7.8938C22.4906 17.0065 9.07858 22.0395 0.661133 24.492V31.7287H10.4733C9.00576 28.3866 10.5248 24.4866 13.8683 23.0192C17.2104 21.5517 21.1104 23.0707 22.5778 26.4142C23.3221 28.1077 23.3221 30.0367 22.5778 31.7301H32.3899V21.918C35.732 23.3855 39.632 21.8665 41.0994 18.523C42.5668 15.1795 41.0479 11.2809 37.7044 9.81348C36.8636 9.44192 35.9542 9.25286 35.034 9.25423Z" fill="#181F4D"/>
</svg>
